<svg xmlns="http://www.w3.org/2000/svg" xmlns:xlink="http://www.w3.org/1999/xlink" xmlns:s="https://github.com/nturley/netlistsvg" width="777" height="316.5">
  <style>svg {
    stroke:#000;
    fill:none;
  }
  text {
    fill:#000;
    stroke:none;
    font-size:10px;
    font-weight: bold;
    font-family: "Courier New", monospace;
  }
  .nodelabel {
    text-anchor: middle;
  }
  .inputPortLabel {
    text-anchor: end;
  }
  .splitjoinBody {
    fill:#000;
  }</style>
  <g s:type="add" transform="translate(77,228.5)" s:width="25" s:height="25" id="cell_$add$./Harris-FPGA-Design/counter.sv:28$289031">
    <s:alias val="$add"/>
    <circle r="12.5" cx="12.5" cy="12.5" class="cell_$add$./Harris-FPGA-Design/counter.sv:28$289031"/>
    <line x1="7.5" x2="17.5" y1="12.5" y2="12.5" class="cell_$add$./Harris-FPGA-Design/counter.sv:28$289031"/>
    <line x1="12.5" x2="12.5" y1="7.5" y2="17.5" class="cell_$add$./Harris-FPGA-Design/counter.sv:28$289031"/>
    <g s:x="3" s:y="5" s:pid="A"/>
    <g s:x="3" s:y="20" s:pid="B"/>
    <g s:x="25" s:y="12.5" s:pid="Y"/>
  </g>
  <g s:type="eq" transform="translate(322,102.5)" s:width="25" s:height="25" id="cell_$eq$./Harris-FPGA-Design/counter.sv:35$289032">
    <s:alias val="$eq"/>
    <circle r="12.5" cx="12.5" cy="12.5" class="cell_$eq$./Harris-FPGA-Design/counter.sv:35$289032"/>
    <line x1="7.5" x2="17.5" y1="10" y2="10" class="cell_$eq$./Harris-FPGA-Design/counter.sv:35$289032"/>
    <line x1="7.5" x2="17.5" y1="15" y2="15" class="cell_$eq$./Harris-FPGA-Design/counter.sv:35$289032"/>
    <g s:x="3" s:y="5" s:pid="A"/>
    <g s:x="3" s:y="20" s:pid="B"/>
    <g s:x="25" s:y="12.5" s:pid="Y"/>
  </g>
  <g s:type="not" transform="translate(437,168.5)" s:width="30" s:height="20" id="cell_$not$./Harris-FPGA-Design/counter.sv:39$289033">
    <s:alias val="$_NOT_"/>
    <s:alias val="$not"/>
    <s:alias val="$logic_not"/>
    <path d="M0,0 L0,20 L20,10 Z" class="cell_$not$./Harris-FPGA-Design/counter.sv:39$289033"/>
    <circle cx="23" cy="10" r="3" class="cell_$not$./Harris-FPGA-Design/counter.sv:39$289033"/>
    <g s:x="0" s:y="10" s:pid="A"/>
    <g s:x="25" s:y="10" s:pid="Y"/>
  </g>
  <g s:type="dff" transform="translate(502,168.5)" s:width="30" s:height="40" id="cell_$procdff$289050">
    <s:alias val="$dff"/>
    <s:alias val="$_DFF_"/>
    <s:alias val="$_DFF_P_"/>
    <rect width="30" height="40" x="0" y="0" class="cell_$procdff$289050"/>
    <path d="M0,35 L5,30 L0,25" class="cell_$procdff$289050"/>
    <g s:x="30" s:y="10" s:pid="Q"/>
    <g s:x="0" s:y="30" s:pid="CLK"/>
    <g s:x="0" s:y="30" s:pid="C"/>
    <g s:x="0" s:y="10" s:pid="D"/>
  </g>
  <g s:type="dff" transform="translate(622,213.5)" s:width="30" s:height="40" id="cell_$procdff$289051">
    <s:alias val="$dff"/>
    <s:alias val="$_DFF_"/>
    <s:alias val="$_DFF_P_"/>
    <rect width="30" height="40" x="0" y="0" class="cell_$procdff$289051"/>
    <path d="M0,35 L5,30 L0,25" class="cell_$procdff$289051"/>
    <g s:x="30" s:y="10" s:pid="Q"/>
    <g s:x="0" s:y="30" s:pid="CLK"/>
    <g s:x="0" s:y="30" s:pid="C"/>
    <g s:x="0" s:y="10" s:pid="D"/>
  </g>
  <g s:type="mux" transform="translate(382,42)" s:width="20" s:height="40" id="cell_$procmux$289037">
    <s:alias val="$pmux"/>
    <s:alias val="$mux"/>
    <s:alias val="$_MUX_"/>
    <path d="M0,0 L20,10 L20,30 L0,40 Z" class="cell_$procmux$289037"/>
    <g s:x="0" s:y="10" s:pid="A"/>
    <g s:x="0" s:y="30" s:pid="B"/>
    <g s:x="10" s:y="35" s:pid="S"/>
    <g s:x="20" s:y="20" s:pid="Y"/>
  </g>
  <g s:type="mux" transform="translate(440.3333333333333,32)" s:width="20" s:height="40" id="cell_$procmux$289039">
    <s:alias val="$pmux"/>
    <s:alias val="$mux"/>
    <s:alias val="$_MUX_"/>
    <path d="M0,0 L20,10 L20,30 L0,40 Z" class="cell_$procmux$289039"/>
    <g s:x="0" s:y="10" s:pid="A"/>
    <g s:x="0" s:y="30" s:pid="B"/>
    <g s:x="10" s:y="35" s:pid="S"/>
    <g s:x="20" s:y="20" s:pid="Y"/>
  </g>
  <g s:type="mux" transform="translate(202,97.5)" s:width="20" s:height="40" id="cell_$procmux$289043">
    <s:alias val="$pmux"/>
    <s:alias val="$mux"/>
    <s:alias val="$_MUX_"/>
    <path d="M0,0 L20,10 L20,30 L0,40 Z" class="cell_$procmux$289043"/>
    <g s:x="0" s:y="10" s:pid="A"/>
    <g s:x="0" s:y="30" s:pid="B"/>
    <g s:x="10" s:y="35" s:pid="S"/>
    <g s:x="20" s:y="20" s:pid="Y"/>
  </g>
  <g s:type="mux" transform="translate(260.33333333333337,87.5)" s:width="20" s:height="40" id="cell_$procmux$289045">
    <s:alias val="$pmux"/>
    <s:alias val="$mux"/>
    <s:alias val="$_MUX_"/>
    <path d="M0,0 L20,10 L20,30 L0,40 Z" class="cell_$procmux$289045"/>
    <g s:x="0" s:y="10" s:pid="A"/>
    <g s:x="0" s:y="30" s:pid="B"/>
    <g s:x="10" s:y="35" s:pid="S"/>
    <g s:x="20" s:y="20" s:pid="Y"/>
  </g>
  <g s:type="mux" transform="translate(567,22)" s:width="20" s:height="40" id="cell_$procmux$289048">
    <s:alias val="$pmux"/>
    <s:alias val="$mux"/>
    <s:alias val="$_MUX_"/>
    <path d="M0,0 L20,10 L20,30 L0,40 Z" class="cell_$procmux$289048"/>
    <g s:x="0" s:y="10" s:pid="A"/>
    <g s:x="0" s:y="30" s:pid="B"/>
    <g s:x="10" s:y="35" s:pid="S"/>
    <g s:x="20" s:y="20" s:pid="Y"/>
  </g>
  <g s:type="inputExt" transform="translate(437,233.5)" s:width="30" s:height="20" id="cell_clk">
    <text x="15" y="-4" class="nodelabel cell_clk" s:attribute="ref">clk</text>
    <s:alias val="$_inputExt_"/>
    <path d="M0,0 L0,20 L15,20 L30,10 L15,0 Z" class="cell_clk"/>
    <g s:x="28" s:y="10" s:pid="Y"/>
  </g>
  <g s:type="inputExt" transform="translate(137,284.5)" s:width="30" s:height="20" id="cell_inc">
    <text x="15" y="-4" class="nodelabel cell_inc" s:attribute="ref">inc</text>
    <s:alias val="$_inputExt_"/>
    <path d="M0,0 L0,20 L15,20 L30,10 L15,0 Z" class="cell_inc"/>
    <g s:x="28" s:y="10" s:pid="Y"/>
  </g>
  <g s:type="outputExt" transform="translate(687,213.5)" s:width="30" s:height="20" id="cell_current_count">
    <text x="15" y="-4" class="nodelabel cell_current_count" s:attribute="ref">current_count</text>
    <s:alias val="$_outputExt_"/>
    <path d="M30,0 L30,20 L15,20 L0,10 L15,0 Z" class="cell_current_count"/>
    <g s:x="0" s:y="10" s:pid="A"/>
  </g>
  <g s:type="constant" transform="translate(12,238.5)" s:width="30" s:height="20" id="cell_00000000000000000000000000000001">
    <text x="15" y="-4" class="nodelabel cell_00000000000000000000000000000001" s:attribute="ref">0x1</text>
    <s:alias val="$_constant_"/>
    <rect width="30" height="20" class="cell_00000000000000000000000000000001"/>
    <g s:x="30" s:y="10" s:pid="Y"/>
  </g>
  <g s:type="constant" transform="translate(257,157.5)" s:width="30" s:height="20" id="cell_1000000">
    <text x="15" y="-4" class="nodelabel cell_1000000" s:attribute="ref">0x40</text>
    <s:alias val="$_constant_"/>
    <rect width="30" height="20" class="cell_1000000"/>
    <g s:x="30" s:y="10" s:pid="Y"/>
  </g>
  <g s:type="constant" transform="translate(137,62)" s:width="30" s:height="20" id="cell_0000000">
    <text x="15" y="-4" class="nodelabel cell_0000000" s:attribute="ref">0x0</text>
    <s:alias val="$_constant_"/>
    <rect width="30" height="20" class="cell_0000000"/>
    <g s:x="30" s:y="10" s:pid="Y"/>
  </g>
  <g s:type="split" transform="translate(143,117)" s:width="5" s:height="40" id="cell_$split$,11,12,13,14,15,16,17,18,19,20,21,22,23,24,25,26,27,28,29,30,31,32,33,34,35,36,37,38,39,40,41,42,">
    <rect width="5" height="20" class="splitjoinBody" s:generic="body"/>
    <s:alias val="$_split_"/>
    <g s:x="0" s:y="20" s:pid="in"/>
    <g transform="translate(4,10)" s:x="4" s:y="10" s:pid="out0">
      <text x="5" y="-4">0:6</text>
    </g>
  </g>
  <line x1="652" x2="662" y1="223.5" y2="223.5" class="net_4,5,6,7,8,9,10"/>
  <line x1="662" x2="662" y1="223.5" y2="263.5" class="net_4,5,6,7,8,9,10"/>
  <line x1="662" x2="52" y1="263.5" y2="263.5" class="net_4,5,6,7,8,9,10"/>
  <line x1="52" x2="52" y1="263.5" y2="233.5" class="net_4,5,6,7,8,9,10"/>
  <line x1="52" x2="80" y1="233.5" y2="233.5" class="net_4,5,6,7,8,9,10"/>
  <line x1="652" x2="662" y1="223.5" y2="223.5" class="net_4,5,6,7,8,9,10"/>
  <line x1="662" x2="662" y1="223.5" y2="12" class="net_4,5,6,7,8,9,10"/>
  <line x1="662" x2="542" y1="12" y2="12" class="net_4,5,6,7,8,9,10"/>
  <line x1="542" x2="542" y1="12" y2="32" class="net_4,5,6,7,8,9,10"/>
  <circle cx="662" cy="223.5" r="2" style="fill:#000" class="net_4,5,6,7,8,9,10"/>
  <line x1="542" x2="567" y1="32" y2="32" class="net_4,5,6,7,8,9,10"/>
  <line x1="652" x2="687" y1="223.5" y2="223.5" class="net_4,5,6,7,8,9,10"/>
  <line x1="42" x2="80" y1="248.5" y2="248.5" class="net_81,82,83,84,85,86,87,88,89,90,91,92,93,94,95,96,97,98,99,100,101,102,103,104,105,106,107,108,109,110,111,112"/>
  <line x1="280.33333333333337" x2="325" y1="107.5" y2="107.5" class="net_43,44,45,46,47,48,49"/>
  <line x1="280.33333333333337" x2="297" y1="107.5" y2="107.5" class="net_43,44,45,46,47,48,49"/>
  <line x1="297" x2="297" y1="107.5" y2="61" class="net_43,44,45,46,47,48,49"/>
  <line x1="297" x2="357" y1="61" y2="61" class="net_43,44,45,46,47,48,49"/>
  <line x1="357" x2="357" y1="61" y2="52" class="net_43,44,45,46,47,48,49"/>
  <circle cx="297" cy="107.5" r="2" style="fill:#000" class="net_43,44,45,46,47,48,49"/>
  <line x1="357" x2="382" y1="52" y2="52" class="net_43,44,45,46,47,48,49"/>
  <line x1="287" x2="297" y1="167.5" y2="167.5" class="net_113,114,115,116,117,118,119"/>
  <line x1="297" x2="297" y1="167.5" y2="122.5" class="net_113,114,115,116,117,118,119"/>
  <line x1="297" x2="325" y1="122.5" y2="122.5" class="net_113,114,115,116,117,118,119"/>
  <line x1="532" x2="542" y1="178.5" y2="178.5" class="net_51"/>
  <line x1="542" x2="542" y1="178.5" y2="148.5" class="net_51"/>
  <line x1="542" x2="477" y1="148.5" y2="148.5" class="net_51"/>
  <line x1="477" x2="477" y1="148.5" y2="158.5" class="net_51"/>
  <line x1="477" x2="412" y1="158.5" y2="158.5" class="net_51"/>
  <line x1="412" x2="412" y1="158.5" y2="178.5" class="net_51"/>
  <line x1="412" x2="437" y1="178.5" y2="178.5" class="net_51"/>
  <line x1="532" x2="542" y1="178.5" y2="178.5" class="net_51"/>
  <line x1="542" x2="542" y1="178.5" y2="148.5" class="net_51"/>
  <line x1="542" x2="450.3333333333333" y1="148.5" y2="148.5" class="net_51"/>
  <line x1="450.3333333333333" x2="450.3333333333333" y1="148.5" y2="67" class="net_51"/>
  <line x1="532" x2="542" y1="178.5" y2="178.5" class="net_51"/>
  <line x1="542" x2="542" y1="178.5" y2="148.5" class="net_51"/>
  <line x1="542" x2="477" y1="148.5" y2="148.5" class="net_51"/>
  <line x1="477" x2="477" y1="148.5" y2="137.5" class="net_51"/>
  <line x1="477" x2="270.33333333333337" y1="137.5" y2="137.5" class="net_51"/>
  <circle cx="477" cy="148.5" r="2" style="fill:#000" class="net_51"/>
  <circle cx="542" cy="178.5" r="2" style="fill:#000" class="net_51"/>
  <line x1="270.33333333333337" x2="270.33333333333337" y1="137.5" y2="122.5" class="net_51"/>
  <line x1="532" x2="577" y1="178.5" y2="178.5" class="net_51"/>
  <line x1="577" x2="577" y1="178.5" y2="57" class="net_51"/>
  <line x1="465" x2="477" y1="243.5" y2="243.5" class="net_2"/>
  <line x1="477" x2="477" y1="243.5" y2="198.5" class="net_2"/>
  <circle cx="477" cy="243.5" r="2" style="fill:#000" class="net_2"/>
  <line x1="477" x2="502" y1="198.5" y2="198.5" class="net_2"/>
  <line x1="465" x2="622" y1="243.5" y2="243.5" class="net_2"/>
  <line x1="462" x2="502" y1="178.5" y2="178.5" class="net_52"/>
  <line x1="587" x2="597" y1="42" y2="42" class="net_53,54,55,56,57,58,59"/>
  <line x1="597" x2="597" y1="42" y2="223.5" class="net_53,54,55,56,57,58,59"/>
  <line x1="597" x2="622" y1="223.5" y2="223.5" class="net_53,54,55,56,57,58,59"/>
  <line x1="167" x2="382" y1="72" y2="72" class="net_120,121,122,123,124,125,126"/>
  <line x1="167" x2="177" y1="72" y2="72" class="net_120,121,122,123,124,125,126"/>
  <line x1="177" x2="177" y1="72" y2="107.5" class="net_120,121,122,123,124,125,126"/>
  <circle cx="177" cy="72" r="2" style="fill:#000" class="net_120,121,122,123,124,125,126"/>
  <line x1="177" x2="202" y1="107.5" y2="107.5" class="net_120,121,122,123,124,125,126"/>
  <line x1="347" x2="392" y1="115" y2="115" class="net_50"/>
  <line x1="392" x2="392" y1="115" y2="77" class="net_50"/>
  <line x1="232" x2="412" y1="31" y2="42" class="net_x,x,x,x,x,x,x"/>
  <line x1="412" x2="440.3333333333333" y1="42" y2="42" class="net_x,x,x,x,x,x,x"/>
  <line x1="232" x2="232" y1="31" y2="97.5" class="net_x,x,x,x,x,x,x"/>
  <line x1="232" x2="260.33333333333337" y1="97.5" y2="97.5" class="net_x,x,x,x,x,x,x"/>
  <line x1="402" x2="440.3333333333333" y1="62" y2="62" class="net_60,61,62,63,64,65,66"/>
  <line x1="148" x2="202" y1="127.5" y2="127.5" class="net_11,12,13,14,15,16,17"/>
  <line x1="165" x2="212" y1="294.5" y2="294.5" class="net_3"/>
  <line x1="212" x2="212" y1="294.5" y2="132.5" class="net_3"/>
  <line x1="222" x2="260.33333333333337" y1="117.5" y2="117.5" class="net_74,75,76,77,78,79,80"/>
  <line x1="460.3333333333333" x2="567" y1="52" y2="52" class="net_67,68,69,70,71,72,73"/>
  <line x1="102" x2="143.5" y1="241" y2="241" class="net_11,12,13,14,15,16,17,18,19,20,21,22,23,24,25,26,27,28,29,30,31,32,33,34,35,36,37,38,39,40,41,42"/>
  <line x1="143.5" x2="143.5" y1="241" y2="138" class="net_11,12,13,14,15,16,17,18,19,20,21,22,23,24,25,26,27,28,29,30,31,32,33,34,35,36,37,38,39,40,41,42"/>
</svg>
