<svg xmlns="http://www.w3.org/2000/svg" xmlns:xlink="http://www.w3.org/1999/xlink" xmlns:s="https://github.com/nturley/netlistsvg" width="862" height="484.5">
  <style>svg {
    stroke:#000;
    fill:none;
  }
  text {
    fill:#000;
    stroke:none;
    font-size:10px;
    font-weight: bold;
    font-family: "Courier New", monospace;
  }
  .nodelabel {
    text-anchor: middle;
  }
  .inputPortLabel {
    text-anchor: end;
  }
  .splitjoinBody {
    fill:#000;
  }</style>
  <g s:type="not" transform="translate(142,419)" s:width="30" s:height="20" id="cell_$not$./Moravec-FPGA-Design/mainController.sv:88$748">
    <s:alias val="$_NOT_"/>
    <s:alias val="$not"/>
    <s:alias val="$logic_not"/>
    <path d="M0,0 L0,20 L20,10 Z" class="cell_$not$./Moravec-FPGA-Design/mainController.sv:88$748"/>
    <circle cx="23" cy="10" r="3" class="cell_$not$./Moravec-FPGA-Design/mainController.sv:88$748"/>
    <g s:x="0" s:y="10" s:pid="A"/>
    <g s:x="25" s:y="10" s:pid="Y"/>
  </g>
  <g s:type="not" transform="translate(142,364)" s:width="30" s:height="20" id="cell_$not$./Moravec-FPGA-Design/mainController.sv:89$749">
    <s:alias val="$_NOT_"/>
    <s:alias val="$not"/>
    <s:alias val="$logic_not"/>
    <path d="M0,0 L0,20 L20,10 Z" class="cell_$not$./Moravec-FPGA-Design/mainController.sv:89$749"/>
    <circle cx="23" cy="10" r="3" class="cell_$not$./Moravec-FPGA-Design/mainController.sv:89$749"/>
    <g s:x="0" s:y="10" s:pid="A"/>
    <g s:x="25" s:y="10" s:pid="Y"/>
  </g>
  <g s:type="or" transform="translate(77,436.5)" s:width="30" s:height="25" id="cell_$or$./Moravec-FPGA-Design/mainController.sv:31$747">
    <s:alias val="$or"/>
    <s:alias val="$logic_or"/>
    <s:alias val="$_OR_"/>
    <path d="M0,25 L0,25 L15,25 A15 12.5 0 0 0 15,0 L0,0" class="cell_$or$./Moravec-FPGA-Design/mainController.sv:31$747"/>
    <path d="M0,0 A30 25 0 0 1 0,25" class="cell_$or$./Moravec-FPGA-Design/mainController.sv:31$747"/>
    <g s:x="3" s:y="5" s:pid="A"/>
    <g s:x="3" s:y="20" s:pid="B"/>
    <g s:x="30" s:y="12.5" s:pid="Y"/>
  </g>
  <g s:type="generic" transform="translate(441,33)" s:width="30" s:height="40" id="cell_address_counter">
    <text x="15" y="-4" class="nodelabel cell_address_counter" s:attribute="ref">$paramod\counter\N=8\bitSize=6</text>
    <rect width="30" height="40" s:generic="body" class="cell_address_counter"/>
    <g transform="translate(0,10)" s:x="0" s:y="10" s:pid="in0" id="port_address_counter~clk">
      <text x="-3" y="-4" class="inputPortLabel cell_address_counter">clk</text>
    </g>
    <g transform="translate(0,30)" s:x="0" s:y="10" s:pid="in0" id="port_address_counter~inc">
      <text x="-3" y="-4" class="inputPortLabel cell_address_counter">inc</text>
    </g>
    <g transform="translate(30,10)" s:x="30" s:y="10" s:pid="out0" id="port_address_counter~current_count">
      <text x="5" y="-4" style="fill:#000; stroke:none" class="cell_address_counter">current_count</text>
    </g>
  </g>
  <g s:type="generic" transform="translate(250,323.5)" s:width="30" s:height="40" id="cell_central_Mask">
    <text x="15" y="-4" class="nodelabel cell_central_Mask" s:attribute="ref">$paramod\centerMask\N=8\bitSize=6\pixelWidth=8</text>
    <rect width="30" height="80" s:generic="body" class="cell_central_Mask"/>
    <g transform="translate(0,10)" s:x="0" s:y="10" s:pid="in0" id="port_central_Mask~clk">
      <text x="-3" y="-4" class="inputPortLabel cell_central_Mask">clk</text>
    </g>
    <g transform="translate(0,30)" s:x="0" s:y="10" s:pid="in0" id="port_central_Mask~data_in">
      <text x="-3" y="-4" class="inputPortLabel cell_central_Mask">data_in</text>
    </g>
    <g transform="translate(0,50)" s:x="0" s:y="10" s:pid="in0" id="port_central_Mask~re">
      <text x="-3" y="-4" class="inputPortLabel cell_central_Mask">re</text>
    </g>
    <g transform="translate(0,70)" s:x="0" s:y="10" s:pid="in0" id="port_central_Mask~we">
      <text x="-3" y="-4" class="inputPortLabel cell_central_Mask">we</text>
    </g>
    <g transform="translate(30,10)" s:x="30" s:y="10" s:pid="out0" id="port_central_Mask~harrisBit">
      <text x="5" y="-4" style="fill:#000; stroke:none" class="cell_central_Mask">harrisBit</text>
    </g>
    <g transform="translate(30,30)" s:x="30" s:y="10" s:pid="out0" id="port_central_Mask~primary_address">
      <text x="5" y="-4" style="fill:#000; stroke:none" class="cell_central_Mask">primary_address</text>
    </g>
    <g transform="translate(30,50)" s:x="30" s:y="10" s:pid="out0" id="port_central_Mask~primary_output">
      <text x="5" y="-4" style="fill:#000; stroke:none" class="cell_central_Mask">primary_output</text>
    </g>
    <g transform="translate(30,70)" s:x="30" s:y="10" s:pid="out0" id="port_central_Mask~write_out_enable">
      <text x="5" y="-4" style="fill:#000; stroke:none" class="cell_central_Mask">write_out_enable</text>
    </g>
  </g>
  <g s:type="generic" transform="translate(724,95.5)" s:width="30" s:height="40" id="cell_harrisMemoryBlock">
    <text x="15" y="-4" class="nodelabel cell_harrisMemoryBlock" s:attribute="ref">$paramod\v_rams_09\N=8\bitSize=6\pixelWidth=8\HarrisCont=1</text>
    <rect width="30" height="120" s:generic="body" class="cell_harrisMemoryBlock"/>
    <g transform="translate(0,10)" s:x="0" s:y="10" s:pid="in0" id="port_harrisMemoryBlock~clk">
      <text x="-3" y="-4" class="inputPortLabel cell_harrisMemoryBlock">clk</text>
    </g>
    <g transform="translate(0,30)" s:x="0" s:y="10" s:pid="in0" id="port_harrisMemoryBlock~data_in">
      <text x="-3" y="-4" class="inputPortLabel cell_harrisMemoryBlock">data_in</text>
    </g>
    <g transform="translate(0,50)" s:x="0" s:y="10" s:pid="in0" id="port_harrisMemoryBlock~dual_read_address">
      <text x="-3" y="-4" class="inputPortLabel cell_harrisMemoryBlock">dual_read_address</text>
    </g>
    <g transform="translate(0,70)" s:x="0" s:y="10" s:pid="in0" id="port_harrisMemoryBlock~harrisBit">
      <text x="-3" y="-4" class="inputPortLabel cell_harrisMemoryBlock">harrisBit</text>
    </g>
    <g transform="translate(0,90)" s:x="0" s:y="10" s:pid="in0" id="port_harrisMemoryBlock~primary_address">
      <text x="-3" y="-4" class="inputPortLabel cell_harrisMemoryBlock">primary_address</text>
    </g>
    <g transform="translate(0,110)" s:x="0" s:y="10" s:pid="in0" id="port_harrisMemoryBlock~we">
      <text x="-3" y="-4" class="inputPortLabel cell_harrisMemoryBlock">we</text>
    </g>
    <g transform="translate(30,10)" s:x="30" s:y="10" s:pid="out0" id="port_harrisMemoryBlock~dual_output">
      <text x="5" y="-4" style="fill:#000; stroke:none" class="cell_harrisMemoryBlock">dual_output</text>
    </g>
    <g transform="translate(30,30)" s:x="30" s:y="10" s:pid="out0" id="port_harrisMemoryBlock~primary_output">
      <text x="5" y="-4" style="fill:#000; stroke:none" class="cell_harrisMemoryBlock">primary_output</text>
    </g>
  </g>
  <g s:type="generic" transform="translate(724,263.5)" s:width="30" s:height="40" id="cell_memoryBlock">
    <text x="15" y="-4" class="nodelabel cell_memoryBlock" s:attribute="ref">$paramod\v_rams_09\N=8\bitSize=6\pixelWidth=8\HarrisCont=0</text>
    <rect width="30" height="120" s:generic="body" class="cell_memoryBlock"/>
    <g transform="translate(0,10)" s:x="0" s:y="10" s:pid="in0" id="port_memoryBlock~clk">
      <text x="-3" y="-4" class="inputPortLabel cell_memoryBlock">clk</text>
    </g>
    <g transform="translate(0,30)" s:x="0" s:y="10" s:pid="in0" id="port_memoryBlock~data_in">
      <text x="-3" y="-4" class="inputPortLabel cell_memoryBlock">data_in</text>
    </g>
    <g transform="translate(0,50)" s:x="0" s:y="10" s:pid="in0" id="port_memoryBlock~dual_read_address">
      <text x="-3" y="-4" class="inputPortLabel cell_memoryBlock">dual_read_address</text>
    </g>
    <g transform="translate(0,70)" s:x="0" s:y="10" s:pid="in0" id="port_memoryBlock~harrisBit">
      <text x="-3" y="-4" class="inputPortLabel cell_memoryBlock">harrisBit</text>
    </g>
    <g transform="translate(0,90)" s:x="0" s:y="10" s:pid="in0" id="port_memoryBlock~primary_address">
      <text x="-3" y="-4" class="inputPortLabel cell_memoryBlock">primary_address</text>
    </g>
    <g transform="translate(0,110)" s:x="0" s:y="10" s:pid="in0" id="port_memoryBlock~we">
      <text x="-3" y="-4" class="inputPortLabel cell_memoryBlock">we</text>
    </g>
    <g transform="translate(30,10)" s:x="30" s:y="10" s:pid="out0" id="port_memoryBlock~dual_output">
      <text x="5" y="-4" style="fill:#000; stroke:none" class="cell_memoryBlock">dual_output</text>
    </g>
    <g transform="translate(30,30)" s:x="30" s:y="10" s:pid="out0" id="port_memoryBlock~primary_output">
      <text x="5" y="-4" style="fill:#000; stroke:none" class="cell_memoryBlock">primary_output</text>
    </g>
  </g>
  <g s:type="generic" transform="translate(455,115.5)" s:width="30" s:height="40" id="cell_write_controller">
    <text x="15" y="-4" class="nodelabel cell_write_controller" s:attribute="ref">$paramod\writeController\N=8\bitSize=6\pixelWidth=8</text>
    <rect width="30" height="100" s:generic="body" class="cell_write_controller"/>
    <g transform="translate(0,10)" s:x="0" s:y="10" s:pid="in0" id="port_write_controller~clk">
      <text x="-3" y="-4" class="inputPortLabel cell_write_controller">clk</text>
    </g>
    <g transform="translate(0,30)" s:x="0" s:y="10" s:pid="in0" id="port_write_controller~data_0">
      <text x="-3" y="-4" class="inputPortLabel cell_write_controller">data_0</text>
    </g>
    <g transform="translate(0,50)" s:x="0" s:y="10" s:pid="in0" id="port_write_controller~data_1">
      <text x="-3" y="-4" class="inputPortLabel cell_write_controller">data_1</text>
    </g>
    <g transform="translate(0,70)" s:x="0" s:y="10" s:pid="in0" id="port_write_controller~we">
      <text x="-3" y="-4" class="inputPortLabel cell_write_controller">we</text>
    </g>
    <g transform="translate(0,90)" s:x="0" s:y="10" s:pid="in0" id="port_write_controller~we_two">
      <text x="-3" y="-4" class="inputPortLabel cell_write_controller">we_two</text>
    </g>
    <g transform="translate(30,10)" s:x="30" s:y="10" s:pid="out0" id="port_write_controller~res">
      <text x="5" y="-4" style="fill:#000; stroke:none" class="cell_write_controller">res</text>
    </g>
  </g>
  <g s:type="inputExt" transform="translate(142,84.5)" s:width="30" s:height="20" id="cell_clk">
    <text x="15" y="-4" class="nodelabel cell_clk" s:attribute="ref">clk</text>
    <s:alias val="$_inputExt_"/>
    <path d="M0,0 L0,20 L15,20 L30,10 L15,0 Z" class="cell_clk"/>
    <g s:x="28" s:y="10" s:pid="Y"/>
  </g>
  <g s:type="inputExt" transform="translate(12,431.5)" s:width="30" s:height="20" id="cell_we">
    <text x="15" y="-4" class="nodelabel cell_we" s:attribute="ref">we</text>
    <s:alias val="$_inputExt_"/>
    <path d="M0,0 L0,20 L15,20 L30,10 L15,0 Z" class="cell_we"/>
    <g s:x="28" s:y="10" s:pid="Y"/>
  </g>
  <g s:type="inputExt" transform="translate(250,136)" s:width="30" s:height="20" id="cell_data_in">
    <text x="15" y="-4" class="nodelabel cell_data_in" s:attribute="ref">data_in</text>
    <s:alias val="$_inputExt_"/>
    <path d="M0,0 L0,20 L15,20 L30,10 L15,0 Z" class="cell_data_in"/>
    <g s:x="28" s:y="10" s:pid="Y"/>
  </g>
  <line x1="107" x2="117" y1="449" y2="449" class="net_12"/>
  <line x1="117" x2="117" y1="449" y2="429" class="net_12"/>
  <circle cx="117" cy="449" r="2" style="fill:#000" class="net_12"/>
  <circle cx="117" cy="429" r="2" style="fill:#000" class="net_12"/>
  <line x1="117" x2="142" y1="429" y2="429" class="net_12"/>
  <line x1="107" x2="117" y1="449" y2="449" class="net_12"/>
  <line x1="117" x2="117" y1="449" y2="374" class="net_12"/>
  <circle cx="117" cy="374" r="2" style="fill:#000" class="net_12"/>
  <line x1="117" x2="142" y1="374" y2="374" class="net_12"/>
  <line x1="107" x2="117" y1="449" y2="449" class="net_12"/>
  <line x1="117" x2="117" y1="449" y2="63.5" class="net_12"/>
  <line x1="117" x2="441" y1="63.5" y2="63.5" class="net_12"/>
  <line x1="107" x2="117" y1="449" y2="449" class="net_12"/>
  <line x1="117" x2="117" y1="449" y2="63.5" class="net_12"/>
  <line x1="117" x2="398" y1="63.5" y2="63.5" class="net_12"/>
  <line x1="398" x2="398" y1="63.5" y2="12" class="net_12"/>
  <line x1="398" x2="611" y1="12" y2="12" class="net_12"/>
  <line x1="611" x2="611" y1="12" y2="206" class="net_12"/>
  <circle cx="398" cy="63.5" r="2" style="fill:#000" class="net_12"/>
  <line x1="611" x2="724" y1="206" y2="206" class="net_12"/>
  <line x1="107" x2="561" y1="449" y2="449" class="net_12"/>
  <line x1="561" x2="561" y1="449" y2="374" class="net_12"/>
  <line x1="561" x2="724" y1="374" y2="374" class="net_12"/>
  <line x1="40" x2="80" y1="441.5" y2="441.5" class="net_3"/>
  <line x1="40" x2="52" y1="441.5" y2="441.5" class="net_3"/>
  <line x1="52" x2="52" y1="441.5" y2="52.5" class="net_3"/>
  <line x1="52" x2="388" y1="52.5" y2="52.5" class="net_3"/>
  <line x1="388" x2="388" y1="52.5" y2="186" class="net_3"/>
  <circle cx="52" cy="441.5" r="2" style="fill:#000" class="net_3"/>
  <line x1="388" x2="455" y1="186" y2="186" class="net_3"/>
  <line x1="281" x2="408" y1="394" y2="394" class="net_15"/>
  <line x1="408" x2="408" y1="394" y2="471.5" class="net_15"/>
  <line x1="408" x2="52" y1="471.5" y2="471.5" class="net_15"/>
  <line x1="52" x2="52" y1="471.5" y2="456.5" class="net_15"/>
  <line x1="52" x2="80" y1="456.5" y2="456.5" class="net_15"/>
  <line x1="281" x2="408" y1="394" y2="394" class="net_15"/>
  <line x1="408" x2="408" y1="394" y2="206" class="net_15"/>
  <circle cx="408" cy="394" r="2" style="fill:#000" class="net_15"/>
  <line x1="408" x2="455" y1="206" y2="206" class="net_15"/>
  <line x1="170" x2="408" y1="94.5" y2="94.5" class="net_2"/>
  <line x1="408" x2="408" y1="94.5" y2="43.5" class="net_2"/>
  <circle cx="408" cy="94.5" r="2" style="fill:#000" class="net_2"/>
  <line x1="408" x2="441" y1="43.5" y2="43.5" class="net_2"/>
  <line x1="170" x2="182" y1="94.5" y2="94.5" class="net_2"/>
  <line x1="182" x2="182" y1="94.5" y2="334" class="net_2"/>
  <circle cx="182" cy="94.5" r="2" style="fill:#000" class="net_2"/>
  <line x1="182" x2="250" y1="334" y2="334" class="net_2"/>
  <line x1="170" x2="581" y1="94.5" y2="94.5" class="net_2"/>
  <line x1="581" x2="581" y1="94.5" y2="106" class="net_2"/>
  <circle cx="581" cy="106" r="2" style="fill:#000" class="net_2"/>
  <line x1="581" x2="724" y1="106" y2="106" class="net_2"/>
  <line x1="170" x2="581" y1="94.5" y2="94.5" class="net_2"/>
  <line x1="581" x2="581" y1="94.5" y2="274" class="net_2"/>
  <line x1="581" x2="724" y1="274" y2="274" class="net_2"/>
  <line x1="170" x2="408" y1="94.5" y2="94.5" class="net_2"/>
  <line x1="408" x2="408" y1="94.5" y2="126" class="net_2"/>
  <line x1="408" x2="455" y1="126" y2="126" class="net_2"/>
  <line x1="755" x2="850" y1="274" y2="274" class="net_23,24,25,26,27,28,29,30"/>
  <line x1="850" x2="850" y1="274" y2="416.5" class="net_23,24,25,26,27,28,29,30"/>
  <line x1="850" x2="182" y1="416.5" y2="416.5" class="net_23,24,25,26,27,28,29,30"/>
  <line x1="182" x2="182" y1="416.5" y2="354" class="net_23,24,25,26,27,28,29,30"/>
  <line x1="182" x2="250" y1="354" y2="354" class="net_23,24,25,26,27,28,29,30"/>
  <line x1="167" x2="250" y1="374" y2="374" class="net_14"/>
  <line x1="167" x2="192" y1="429" y2="429" class="net_13"/>
  <line x1="192" x2="192" y1="429" y2="394" class="net_13"/>
  <line x1="192" x2="250" y1="394" y2="394" class="net_13"/>
  <line x1="486" x2="724" y1="126" y2="126" class="net_47,48,49,50,51,52,53,54"/>
  <line x1="486" x2="561" y1="126" y2="126" class="net_47,48,49,50,51,52,53,54"/>
  <line x1="561" x2="561" y1="126" y2="294" class="net_47,48,49,50,51,52,53,54"/>
  <circle cx="561" cy="126" r="2" style="fill:#000" class="net_47,48,49,50,51,52,53,54"/>
  <line x1="561" x2="724" y1="294" y2="294" class="net_47,48,49,50,51,52,53,54"/>
  <line x1="281" x2="571" y1="354" y2="354" class="net_32,33,34,35,36,37,38"/>
  <line x1="571" x2="571" y1="354" y2="146" class="net_32,33,34,35,36,37,38"/>
  <line x1="571" x2="724" y1="146" y2="146" class="net_32,33,34,35,36,37,38"/>
  <line x1="281" x2="571" y1="354" y2="354" class="net_32,33,34,35,36,37,38"/>
  <line x1="571" x2="571" y1="354" y2="314" class="net_32,33,34,35,36,37,38"/>
  <circle cx="571" cy="314" r="2" style="fill:#000" class="net_32,33,34,35,36,37,38"/>
  <line x1="571" x2="724" y1="314" y2="314" class="net_32,33,34,35,36,37,38"/>
  <line x1="281" x2="601" y1="334" y2="334" class="net_31"/>
  <line x1="601" x2="601" y1="334" y2="166" class="net_31"/>
  <circle cx="601" cy="334" r="2" style="fill:#000" class="net_31"/>
  <line x1="601" x2="724" y1="166" y2="166" class="net_31"/>
  <line x1="281" x2="724" y1="334" y2="334" class="net_31"/>
  <line x1="472" x2="591" y1="43.5" y2="43.5" class="net_16,17,18,19,20,21,22"/>
  <line x1="591" x2="591" y1="43.5" y2="186" class="net_16,17,18,19,20,21,22"/>
  <circle cx="591" cy="186" r="2" style="fill:#000" class="net_16,17,18,19,20,21,22"/>
  <line x1="591" x2="724" y1="186" y2="186" class="net_16,17,18,19,20,21,22"/>
  <line x1="472" x2="591" y1="43.5" y2="43.5" class="net_16,17,18,19,20,21,22"/>
  <line x1="591" x2="591" y1="43.5" y2="354" class="net_16,17,18,19,20,21,22"/>
  <line x1="591" x2="724" y1="354" y2="354" class="net_16,17,18,19,20,21,22"/>
  <line x1="278" x2="455" y1="146" y2="146" class="net_4,5,6,7,8,9,10,11"/>
  <line x1="281" x2="398" y1="374" y2="374" class="net_39,40,41,42,43,44,45,46"/>
  <line x1="398" x2="398" y1="374" y2="166" class="net_39,40,41,42,43,44,45,46"/>
  <line x1="398" x2="455" y1="166" y2="166" class="net_39,40,41,42,43,44,45,46"/>
</svg>
