<svg xmlns="http://www.w3.org/2000/svg" xmlns:xlink="http://www.w3.org/1999/xlink" xmlns:s="https://github.com/nturley/netlistsvg" width="1302" height="852">
  <style>svg {
    stroke:#000;
    fill:none;
  }
  text {
    fill:#000;
    stroke:none;
    font-size:10px;
    font-weight: bold;
    font-family: "Courier New", monospace;
  }
  .nodelabel {
    text-anchor: middle;
  }
  .inputPortLabel {
    text-anchor: end;
  }
  .splitjoinBody {
    fill:#000;
  }</style>
  <g s:type="lt" transform="translate(662.3333333333334,487.5)" s:width="25" s:height="25" id="cell_$lt$./Moravec-FPGA-Design/Moravec-Flip-Flops.sv:24$172226">
    <s:alias val="$lt"/>
    <circle r="12.5" cx="12.5" cy="12.5" class="cell_$lt$./Moravec-FPGA-Design/Moravec-Flip-Flops.sv:24$172226"/>
    <line x1="7.5" x2="17.5" y1="12.5" y2="7.5" class="cell_$lt$./Moravec-FPGA-Design/Moravec-Flip-Flops.sv:24$172226"/>
    <line x1="7.5" x2="17.5" y1="12.5" y2="17.5" class="cell_$lt$./Moravec-FPGA-Design/Moravec-Flip-Flops.sv:24$172226"/>
    <g s:x="3" s:y="5" s:pid="A"/>
    <g s:x="3" s:y="20" s:pid="B"/>
    <g s:x="25" s:y="12.5" s:pid="Y"/>
  </g>
  <g s:type="not" transform="translate(940,575)" s:width="30" s:height="20" id="cell_$not$./Moravec-FPGA-Design/Moravec-Flip-Flops.sv:34$172230">
    <s:alias val="$_NOT_"/>
    <s:alias val="$not"/>
    <s:alias val="$logic_not"/>
    <path d="M0,0 L0,20 L20,10 Z" class="cell_$not$./Moravec-FPGA-Design/Moravec-Flip-Flops.sv:34$172230"/>
    <circle cx="23" cy="10" r="3" class="cell_$not$./Moravec-FPGA-Design/Moravec-Flip-Flops.sv:34$172230"/>
    <g s:x="0" s:y="10" s:pid="A"/>
    <g s:x="25" s:y="10" s:pid="Y"/>
  </g>
  <g s:type="generic" transform="translate(167,482)" s:width="30" s:height="40" id="cell_$pow$./Moravec-FPGA-Design/Moravec-Flip-Flops.sv:24$172225">
    <text x="15" y="-4" class="nodelabel cell_$pow$./Moravec-FPGA-Design/Moravec-Flip-Flops.sv:24$172225" s:attribute="ref">$pow</text>
    <rect width="30" height="40" s:generic="body" class="cell_$pow$./Moravec-FPGA-Design/Moravec-Flip-Flops.sv:24$172225"/>
    <g transform="translate(0,10)" s:x="0" s:y="10" s:pid="in0" id="port_$pow$./Moravec-FPGA-Design/Moravec-Flip-Flops.sv:24$172225~A">
      <text x="-3" y="-4" class="inputPortLabel cell_$pow$./Moravec-FPGA-Design/Moravec-Flip-Flops.sv:24$172225">A</text>
    </g>
    <g transform="translate(0,30)" s:x="0" s:y="10" s:pid="in0" id="port_$pow$./Moravec-FPGA-Design/Moravec-Flip-Flops.sv:24$172225~B">
      <text x="-3" y="-4" class="inputPortLabel cell_$pow$./Moravec-FPGA-Design/Moravec-Flip-Flops.sv:24$172225">B</text>
    </g>
    <g transform="translate(30,10)" s:x="30" s:y="10" s:pid="out0" id="port_$pow$./Moravec-FPGA-Design/Moravec-Flip-Flops.sv:24$172225~Y">
      <text x="5" y="-4" style="fill:#000; stroke:none" class="cell_$pow$./Moravec-FPGA-Design/Moravec-Flip-Flops.sv:24$172225">Y</text>
    </g>
  </g>
  <g s:type="generic" transform="translate(557,365.5)" s:width="30" s:height="40" id="cell_$pow$./Moravec-FPGA-Design/Moravec-Flip-Flops.sv:24$172228">
    <text x="15" y="-4" class="nodelabel cell_$pow$./Moravec-FPGA-Design/Moravec-Flip-Flops.sv:24$172228" s:attribute="ref">$pow</text>
    <rect width="30" height="40" s:generic="body" class="cell_$pow$./Moravec-FPGA-Design/Moravec-Flip-Flops.sv:24$172228"/>
    <g transform="translate(0,10)" s:x="0" s:y="10" s:pid="in0" id="port_$pow$./Moravec-FPGA-Design/Moravec-Flip-Flops.sv:24$172228~A">
      <text x="-3" y="-4" class="inputPortLabel cell_$pow$./Moravec-FPGA-Design/Moravec-Flip-Flops.sv:24$172228">A</text>
    </g>
    <g transform="translate(0,30)" s:x="0" s:y="10" s:pid="in0" id="port_$pow$./Moravec-FPGA-Design/Moravec-Flip-Flops.sv:24$172228~B">
      <text x="-3" y="-4" class="inputPortLabel cell_$pow$./Moravec-FPGA-Design/Moravec-Flip-Flops.sv:24$172228">B</text>
    </g>
    <g transform="translate(30,10)" s:x="30" s:y="10" s:pid="out0" id="port_$pow$./Moravec-FPGA-Design/Moravec-Flip-Flops.sv:24$172228~Y">
      <text x="5" y="-4" style="fill:#000; stroke:none" class="cell_$pow$./Moravec-FPGA-Design/Moravec-Flip-Flops.sv:24$172228">Y</text>
    </g>
  </g>
  <g s:type="dff" transform="translate(1195,790)" s:width="30" s:height="40" id="cell_$procdff$172250">
    <s:alias val="$dff"/>
    <s:alias val="$_DFF_"/>
    <s:alias val="$_DFF_P_"/>
    <rect width="30" height="40" x="0" y="0" class="cell_$procdff$172250"/>
    <path d="M0,35 L5,30 L0,25" class="cell_$procdff$172250"/>
    <g s:x="30" s:y="10" s:pid="Q"/>
    <g s:x="0" s:y="30" s:pid="CLK"/>
    <g s:x="0" s:y="30" s:pid="C"/>
    <g s:x="0" s:y="10" s:pid="D"/>
  </g>
  <g s:type="dff" transform="translate(1020,620)" s:width="30" s:height="40" id="cell_$procdff$172251">
    <s:alias val="$dff"/>
    <s:alias val="$_DFF_"/>
    <s:alias val="$_DFF_P_"/>
    <rect width="30" height="40" x="0" y="0" class="cell_$procdff$172251"/>
    <path d="M0,35 L5,30 L0,25" class="cell_$procdff$172251"/>
    <g s:x="30" s:y="10" s:pid="Q"/>
    <g s:x="0" s:y="30" s:pid="CLK"/>
    <g s:x="0" s:y="30" s:pid="C"/>
    <g s:x="0" s:y="10" s:pid="D"/>
  </g>
  <g s:type="dff" transform="translate(1195,579)" s:width="30" s:height="40" id="cell_$procdff$172252">
    <s:alias val="$dff"/>
    <s:alias val="$_DFF_"/>
    <s:alias val="$_DFF_P_"/>
    <rect width="30" height="40" x="0" y="0" class="cell_$procdff$172252"/>
    <path d="M0,35 L5,30 L0,25" class="cell_$procdff$172252"/>
    <g s:x="30" s:y="10" s:pid="Q"/>
    <g s:x="0" s:y="30" s:pid="CLK"/>
    <g s:x="0" s:y="30" s:pid="C"/>
    <g s:x="0" s:y="10" s:pid="D"/>
  </g>
  <g s:type="mux" transform="translate(1023.3333333333334,750)" s:width="20" s:height="40" id="cell_$procmux$172234">
    <s:alias val="$pmux"/>
    <s:alias val="$mux"/>
    <s:alias val="$_MUX_"/>
    <path d="M0,0 L20,10 L20,30 L0,40 Z" class="cell_$procmux$172234"/>
    <g s:x="0" s:y="10" s:pid="A"/>
    <g s:x="0" s:y="30" s:pid="B"/>
    <g s:x="10" s:y="35" s:pid="S"/>
    <g s:x="20" s:y="20" s:pid="Y"/>
  </g>
  <g s:type="mux" transform="translate(1085,740)" s:width="20" s:height="40" id="cell_$procmux$172236">
    <s:alias val="$pmux"/>
    <s:alias val="$mux"/>
    <s:alias val="$_MUX_"/>
    <path d="M0,0 L20,10 L20,30 L0,40 Z" class="cell_$procmux$172236"/>
    <g s:x="0" s:y="10" s:pid="A"/>
    <g s:x="0" s:y="30" s:pid="B"/>
    <g s:x="10" s:y="35" s:pid="S"/>
    <g s:x="20" s:y="20" s:pid="Y"/>
  </g>
  <g s:type="mux" transform="translate(1026.6666666666665,407)" s:width="20" s:height="40" id="cell_$procmux$172240">
    <s:alias val="$pmux"/>
    <s:alias val="$mux"/>
    <s:alias val="$_MUX_"/>
    <path d="M0,0 L20,10 L20,30 L0,40 Z" class="cell_$procmux$172240"/>
    <g s:x="0" s:y="10" s:pid="A"/>
    <g s:x="0" s:y="30" s:pid="B"/>
    <g s:x="10" s:y="35" s:pid="S"/>
    <g s:x="20" s:y="20" s:pid="Y"/>
  </g>
  <g s:type="mux" transform="translate(1085,397)" s:width="20" s:height="40" id="cell_$procmux$172242">
    <s:alias val="$pmux"/>
    <s:alias val="$mux"/>
    <s:alias val="$_MUX_"/>
    <path d="M0,0 L20,10 L20,30 L0,40 Z" class="cell_$procmux$172242"/>
    <g s:x="0" s:y="10" s:pid="A"/>
    <g s:x="0" s:y="30" s:pid="B"/>
    <g s:x="10" s:y="35" s:pid="S"/>
    <g s:x="20" s:y="20" s:pid="Y"/>
  </g>
  <g s:type="mux" transform="translate(1140,387)" s:width="20" s:height="40" id="cell_$procmux$172245">
    <s:alias val="$pmux"/>
    <s:alias val="$mux"/>
    <s:alias val="$_MUX_"/>
    <path d="M0,0 L20,10 L20,30 L0,40 Z" class="cell_$procmux$172245"/>
    <g s:x="0" s:y="10" s:pid="A"/>
    <g s:x="0" s:y="30" s:pid="B"/>
    <g s:x="10" s:y="35" s:pid="S"/>
    <g s:x="20" s:y="20" s:pid="Y"/>
  </g>
  <g s:type="mux" transform="translate(1140,730)" s:width="20" s:height="40" id="cell_$procmux$172248">
    <s:alias val="$pmux"/>
    <s:alias val="$mux"/>
    <s:alias val="$_MUX_"/>
    <path d="M0,0 L20,10 L20,30 L0,40 Z" class="cell_$procmux$172248"/>
    <g s:x="0" s:y="10" s:pid="A"/>
    <g s:x="0" s:y="30" s:pid="B"/>
    <g s:x="10" s:y="35" s:pid="S"/>
    <g s:x="20" s:y="20" s:pid="Y"/>
  </g>
  <g s:type="sub" transform="translate(96.66666666666667,432.5)" s:width="25" s:height="25" id="cell_$sub$./Moravec-FPGA-Design/Moravec-Flip-Flops.sv:24$172224">
    <s:alias val="$sub"/>
    <circle r="12.5" cx="12.5" cy="12.5" class="cell_$sub$./Moravec-FPGA-Design/Moravec-Flip-Flops.sv:24$172224"/>
    <line x1="7.5" x2="17.5" y1="12.5" y2="12.5" class="cell_$sub$./Moravec-FPGA-Design/Moravec-Flip-Flops.sv:24$172224"/>
    <g s:x="3" s:y="5" s:pid="A"/>
    <g s:x="3" s:y="20" s:pid="B"/>
    <g s:x="25" s:y="12.5" s:pid="Y"/>
  </g>
  <g s:type="sub" transform="translate(272.3333333333333,361)" s:width="25" s:height="25" id="cell_$sub$./Moravec-FPGA-Design/Moravec-Flip-Flops.sv:24$172227">
    <s:alias val="$sub"/>
    <circle r="12.5" cx="12.5" cy="12.5" class="cell_$sub$./Moravec-FPGA-Design/Moravec-Flip-Flops.sv:24$172227"/>
    <line x1="7.5" x2="17.5" y1="12.5" y2="12.5" class="cell_$sub$./Moravec-FPGA-Design/Moravec-Flip-Flops.sv:24$172227"/>
    <g s:x="3" s:y="5" s:pid="A"/>
    <g s:x="3" s:y="20" s:pid="B"/>
    <g s:x="25" s:y="12.5" s:pid="Y"/>
  </g>
  <g s:type="mux" transform="translate(943.3333333333334,417)" s:width="20" s:height="40" id="cell_$ternary$./Moravec-FPGA-Design/Moravec-Flip-Flops.sv:24$172229">
    <s:alias val="$pmux"/>
    <s:alias val="$mux"/>
    <s:alias val="$_MUX_"/>
    <path d="M0,0 L20,10 L20,30 L0,40 Z" class="cell_$ternary$./Moravec-FPGA-Design/Moravec-Flip-Flops.sv:24$172229"/>
    <g s:x="0" s:y="10" s:pid="A"/>
    <g s:x="0" s:y="30" s:pid="B"/>
    <g s:x="10" s:y="35" s:pid="S"/>
    <g s:x="20" s:y="20" s:pid="Y"/>
  </g>
  <g s:type="inputExt" transform="translate(940,640)" s:width="30" s:height="20" id="cell_clk">
    <text x="15" y="-4" class="nodelabel cell_clk" s:attribute="ref">clk</text>
    <s:alias val="$_inputExt_"/>
    <path d="M0,0 L0,20 L15,20 L30,10 L15,0 Z" class="cell_clk"/>
    <g s:x="28" s:y="10" s:pid="Y"/>
  </g>
  <g s:type="inputExt" transform="translate(940,520)" s:width="30" s:height="20" id="cell_start">
    <text x="15" y="-4" class="nodelabel cell_start" s:attribute="ref">start</text>
    <s:alias val="$_inputExt_"/>
    <path d="M0,0 L0,20 L15,20 L30,10 L15,0 Z" class="cell_start"/>
    <g s:x="28" s:y="10" s:pid="Y"/>
  </g>
  <g s:type="inputExt" transform="translate(12,442.5)" s:width="30" s:height="20" id="cell_inCenter">
    <text x="15" y="-4" class="nodelabel cell_inCenter" s:attribute="ref">inCenter</text>
    <s:alias val="$_inputExt_"/>
    <path d="M0,0 L0,20 L15,20 L30,10 L15,0 Z" class="cell_inCenter"/>
    <g s:x="28" s:y="10" s:pid="Y"/>
  </g>
  <g s:type="inputExt" transform="translate(12,356)" s:width="30" s:height="20" id="cell_inTarget">
    <text x="15" y="-4" class="nodelabel cell_inTarget" s:attribute="ref">inTarget</text>
    <s:alias val="$_inputExt_"/>
    <path d="M0,0 L0,20 L15,20 L30,10 L15,0 Z" class="cell_inTarget"/>
    <g s:x="28" s:y="10" s:pid="Y"/>
  </g>
  <g s:type="inputExt" transform="translate(167,417)" s:width="30" s:height="20" id="cell_inE">
    <text x="15" y="-4" class="nodelabel cell_inE" s:attribute="ref">inE</text>
    <s:alias val="$_inputExt_"/>
    <path d="M0,0 L0,20 L15,20 L30,10 L15,0 Z" class="cell_inE"/>
    <g s:x="28" s:y="10" s:pid="Y"/>
  </g>
  <g s:type="outputExt" transform="translate(1260,790)" s:width="30" s:height="20" id="cell_Q">
    <text x="15" y="-4" class="nodelabel cell_Q" s:attribute="ref">Q</text>
    <s:alias val="$_outputExt_"/>
    <path d="M30,0 L30,20 L15,20 L0,10 L15,0 Z" class="cell_Q"/>
    <g s:x="0" s:y="10" s:pid="A"/>
  </g>
  <g s:type="outputExt" transform="translate(1260,579)" s:width="30" s:height="20" id="cell_Eout">
    <text x="15" y="-4" class="nodelabel cell_Eout" s:attribute="ref">Eout</text>
    <s:alias val="$_outputExt_"/>
    <path d="M30,0 L30,20 L15,20 L0,10 L15,0 Z" class="cell_Eout"/>
    <g s:x="0" s:y="10" s:pid="A"/>
  </g>
  <g s:type="constant" transform="translate(95,502.5)" s:width="30" s:height="20" id="cell_00000000000000000000000000000010">
    <text x="15" y="-4" class="nodelabel cell_00000000000000000000000000000010" s:attribute="ref">0x2</text>
    <s:alias val="$_constant_"/>
    <rect width="30" height="20" class="cell_00000000000000000000000000000010"/>
    <g s:x="30" s:y="10" s:pid="Y"/>
  </g>
  <g s:type="constant" transform="translate(940,705)" s:width="30" s:height="20" id="cell_0">
    <text x="15" y="-4" class="nodelabel cell_0" s:attribute="ref">0</text>
    <s:alias val="$_constant_"/>
    <rect width="30" height="20" class="cell_0"/>
    <g s:x="30" s:y="10" s:pid="Y"/>
  </g>
  <g s:type="constant" transform="translate(940,770)" s:width="30" s:height="20" id="cell_1">
    <text x="15" y="-4" class="nodelabel cell_1" s:attribute="ref">1</text>
    <s:alias val="$_constant_"/>
    <rect width="30" height="20" class="cell_1"/>
    <g s:x="30" s:y="10" s:pid="Y"/>
  </g>
  <g s:type="join" transform="translate(54,34)" s:width="4" s:height="40" id="cell_$join$,x,x,x,x,x,x,x,x,x,x,x,x,x,x,">
    <rect width="5" height="280" class="splitjoinBody" s:generic="body"/>
    <s:alias val="$_join_"/>
    <g s:x="5" s:y="20" s:pid="out"/>
    <g transform="translate(0,10)" s:x="0" s:y="10" s:pid="in0">
      <text x="-3" y="-4" class="inputPortLabel">0</text>
    </g>
    <g transform="translate(0,30)" s:x="0" s:y="10" s:pid="in0">
      <text x="-3" y="-4" class="inputPortLabel">1</text>
    </g>
    <g transform="translate(0,50)" s:x="0" s:y="10" s:pid="in0">
      <text x="-3" y="-4" class="inputPortLabel">2</text>
    </g>
    <g transform="translate(0,70)" s:x="0" s:y="10" s:pid="in0">
      <text x="-3" y="-4" class="inputPortLabel">3</text>
    </g>
    <g transform="translate(0,90)" s:x="0" s:y="10" s:pid="in0">
      <text x="-3" y="-4" class="inputPortLabel">4</text>
    </g>
    <g transform="translate(0,110)" s:x="0" s:y="10" s:pid="in0">
      <text x="-3" y="-4" class="inputPortLabel">5</text>
    </g>
    <g transform="translate(0,130)" s:x="0" s:y="10" s:pid="in0">
      <text x="-3" y="-4" class="inputPortLabel">6</text>
    </g>
    <g transform="translate(0,150)" s:x="0" s:y="10" s:pid="in0">
      <text x="-3" y="-4" class="inputPortLabel">7</text>
    </g>
    <g transform="translate(0,170)" s:x="0" s:y="10" s:pid="in0">
      <text x="-3" y="-4" class="inputPortLabel">8</text>
    </g>
    <g transform="translate(0,190)" s:x="0" s:y="10" s:pid="in0">
      <text x="-3" y="-4" class="inputPortLabel">9</text>
    </g>
    <g transform="translate(0,210)" s:x="0" s:y="10" s:pid="in0">
      <text x="-3" y="-4" class="inputPortLabel">10</text>
    </g>
    <g transform="translate(0,230)" s:x="0" s:y="10" s:pid="in0">
      <text x="-3" y="-4" class="inputPortLabel">11</text>
    </g>
    <g transform="translate(0,250)" s:x="0" s:y="10" s:pid="in0">
      <text x="-3" y="-4" class="inputPortLabel">12</text>
    </g>
    <g transform="translate(0,270)" s:x="0" s:y="10" s:pid="in0">
      <text x="-3" y="-4" class="inputPortLabel">13</text>
    </g>
  </g>
  <line x1="198" x2="665.3333333333334" y1="492.5" y2="492.5" class="net_49,50,51,52,53,54,55,56,57,58,59,60,61,62"/>
  <line x1="195" x2="525" y1="427" y2="427" class="net_20,21,22,23,24,25,26,27,28,29,30,31,32,33"/>
  <line x1="525" x2="525" y1="427" y2="507.5" class="net_20,21,22,23,24,25,26,27,28,29,30,31,32,33"/>
  <circle cx="525" cy="427" r="2" style="fill:#000" class="net_20,21,22,23,24,25,26,27,28,29,30,31,32,33"/>
  <line x1="525" x2="665.3333333333334" y1="507.5" y2="507.5" class="net_20,21,22,23,24,25,26,27,28,29,30,31,32,33"/>
  <line x1="195" x2="943.3333333333334" y1="427" y2="427" class="net_20,21,22,23,24,25,26,27,28,29,30,31,32,33"/>
  <line x1="1050" x2="1060" y1="630" y2="630" class="net_64"/>
  <line x1="1060" x2="1060" y1="630" y2="810" class="net_64"/>
  <line x1="1060" x2="915" y1="810" y2="810" class="net_64"/>
  <line x1="915" x2="915" y1="810" y2="585" class="net_64"/>
  <line x1="915" x2="940" y1="585" y2="585" class="net_64"/>
  <line x1="1050" x2="1060" y1="630" y2="630" class="net_64"/>
  <line x1="1060" x2="1060" y1="630" y2="790" class="net_64"/>
  <line x1="1060" x2="1095" y1="790" y2="790" class="net_64"/>
  <circle cx="1060" cy="630" r="2" style="fill:#000" class="net_64"/>
  <circle cx="1060" cy="790" r="2" style="fill:#000" class="net_64"/>
  <line x1="1095" x2="1095" y1="790" y2="775" class="net_64"/>
  <line x1="1050" x2="1060" y1="630" y2="630" class="net_64"/>
  <line x1="1060" x2="1060" y1="630" y2="599" class="net_64"/>
  <line x1="1060" x2="1095" y1="599" y2="599" class="net_64"/>
  <line x1="1095" x2="1095" y1="599" y2="432" class="net_64"/>
  <line x1="1050" x2="1150" y1="630" y2="630" class="net_64"/>
  <line x1="1150" x2="1150" y1="630" y2="422" class="net_64"/>
  <line x1="1050" x2="1060" y1="630" y2="630" class="net_64"/>
  <line x1="1060" x2="1060" y1="630" y2="800" class="net_64"/>
  <line x1="1060" x2="1150" y1="800" y2="800" class="net_64"/>
  <circle cx="1060" cy="800" r="2" style="fill:#000" class="net_64"/>
  <line x1="1150" x2="1150" y1="800" y2="765" class="net_64"/>
  <line x1="121.66666666666667" x2="145" y1="445" y2="445" class="net_66,67,68,69,70,71,72,73,74,75,76,77,78,79"/>
  <line x1="145" x2="145" y1="445" y2="492.5" class="net_66,67,68,69,70,71,72,73,74,75,76,77,78,79"/>
  <line x1="145" x2="167" y1="492.5" y2="492.5" class="net_66,67,68,69,70,71,72,73,74,75,76,77,78,79"/>
  <line x1="125" x2="167" y1="512.5" y2="512.5" class="net_167,168,169,170,171,172,173,174,175,176,177,178,179,180,181,182,183,184,185,186,187,188,189,190,191,192,193,194,195,196,197,198"/>
  <line x1="125" x2="135" y1="512.5" y2="512.5" class="net_167,168,169,170,171,172,173,174,175,176,177,178,179,180,181,182,183,184,185,186,187,188,189,190,191,192,193,194,195,196,197,198"/>
  <line x1="135" x2="135" y1="512.5" y2="396" class="net_167,168,169,170,171,172,173,174,175,176,177,178,179,180,181,182,183,184,185,186,187,188,189,190,191,192,193,194,195,196,197,198"/>
  <circle cx="135" cy="512.5" r="2" style="fill:#000" class="net_167,168,169,170,171,172,173,174,175,176,177,178,179,180,181,182,183,184,185,186,187,188,189,190,191,192,193,194,195,196,197,198"/>
  <line x1="135" x2="557" y1="396" y2="396" class="net_167,168,169,170,171,172,173,174,175,176,177,178,179,180,181,182,183,184,185,186,187,188,189,190,191,192,193,194,195,196,197,198"/>
  <line x1="297.3333333333333" x2="525" y1="373.5" y2="373.5" class="net_80,81,82,83,84,85,86,87,88,89,90,91,92,93"/>
  <line x1="525" x2="525" y1="373.5" y2="376" class="net_80,81,82,83,84,85,86,87,88,89,90,91,92,93"/>
  <line x1="525" x2="557" y1="376" y2="376" class="net_80,81,82,83,84,85,86,87,88,89,90,91,92,93"/>
  <line x1="968" x2="990" y1="650" y2="650" class="net_2"/>
  <line x1="990" x2="990" y1="650" y2="820" class="net_2"/>
  <circle cx="990" cy="650" r="2" style="fill:#000" class="net_2"/>
  <line x1="990" x2="1195" y1="820" y2="820" class="net_2"/>
  <line x1="968" x2="1020" y1="650" y2="650" class="net_2"/>
  <line x1="968" x2="990" y1="650" y2="650" class="net_2"/>
  <line x1="990" x2="990" y1="650" y2="609" class="net_2"/>
  <line x1="990" x2="1195" y1="609" y2="609" class="net_2"/>
  <line x1="1160" x2="1170" y1="750" y2="750" class="net_108"/>
  <line x1="1170" x2="1170" y1="750" y2="800" class="net_108"/>
  <line x1="1170" x2="1195" y1="800" y2="800" class="net_108"/>
  <line x1="965" x2="1000" y1="585" y2="585" class="net_65"/>
  <line x1="1000" x2="1000" y1="585" y2="630" class="net_65"/>
  <line x1="1000" x2="1020" y1="630" y2="630" class="net_65"/>
  <line x1="1160" x2="1170" y1="407" y2="407" class="net_109,110,111,112,113,114,115,116,117,118,119,120,121,122"/>
  <line x1="1170" x2="1170" y1="407" y2="589" class="net_109,110,111,112,113,114,115,116,117,118,119,120,121,122"/>
  <line x1="1170" x2="1195" y1="589" y2="589" class="net_109,110,111,112,113,114,115,116,117,118,119,120,121,122"/>
  <line x1="970" x2="980" y1="715" y2="715" class="net_231"/>
  <line x1="980" x2="980" y1="715" y2="760" class="net_231"/>
  <line x1="980" x2="1023.3333333333334" y1="760" y2="760" class="net_231"/>
  <line x1="970" x2="1023.3333333333334" y1="780" y2="780" class="net_232"/>
  <line x1="968" x2="1010" y1="530" y2="530" class="net_3"/>
  <line x1="1010" x2="1010" y1="530" y2="800" class="net_3"/>
  <line x1="1010" x2="1033.3333333333335" y1="800" y2="800" class="net_3"/>
  <circle cx="1010" cy="530" r="2" style="fill:#000" class="net_3"/>
  <line x1="1033.3333333333335" x2="1033.3333333333335" y1="800" y2="785" class="net_3"/>
  <line x1="968" x2="1036.6666666666665" y1="530" y2="530" class="net_3"/>
  <line x1="1036.6666666666665" x2="1036.6666666666665" y1="530" y2="442" class="net_3"/>
  <line x1="1043.3333333333335" x2="1085" y1="770" y2="770" class="net_123"/>
  <line x1="1225" x2="1235" y1="589" y2="589" class="net_35,36,37,38,39,40,41,42,43,44,45,46,47,48"/>
  <line x1="1235" x2="1235" y1="589" y2="376" class="net_35,36,37,38,39,40,41,42,43,44,45,46,47,48"/>
  <line x1="1235" x2="1010" y1="376" y2="376" class="net_35,36,37,38,39,40,41,42,43,44,45,46,47,48"/>
  <line x1="1010" x2="1010" y1="376" y2="417" class="net_35,36,37,38,39,40,41,42,43,44,45,46,47,48"/>
  <circle cx="1235" cy="589" r="2" style="fill:#000" class="net_35,36,37,38,39,40,41,42,43,44,45,46,47,48"/>
  <line x1="1010" x2="1026.6666666666665" y1="417" y2="417" class="net_35,36,37,38,39,40,41,42,43,44,45,46,47,48"/>
  <line x1="1225" x2="1235" y1="589" y2="589" class="net_35,36,37,38,39,40,41,42,43,44,45,46,47,48"/>
  <line x1="1235" x2="1235" y1="589" y2="376" class="net_35,36,37,38,39,40,41,42,43,44,45,46,47,48"/>
  <line x1="1235" x2="1115" y1="376" y2="376" class="net_35,36,37,38,39,40,41,42,43,44,45,46,47,48"/>
  <line x1="1115" x2="1115" y1="376" y2="397" class="net_35,36,37,38,39,40,41,42,43,44,45,46,47,48"/>
  <circle cx="1115" cy="376" r="2" style="fill:#000" class="net_35,36,37,38,39,40,41,42,43,44,45,46,47,48"/>
  <line x1="1115" x2="1140" y1="397" y2="397" class="net_35,36,37,38,39,40,41,42,43,44,45,46,47,48"/>
  <line x1="1225" x2="1260" y1="589" y2="589" class="net_35,36,37,38,39,40,41,42,43,44,45,46,47,48"/>
  <line x1="963.3333333333334" x2="1026.6666666666665" y1="437" y2="437" class="net_125,126,127,128,129,130,131,132,133,134,135,136,137,138"/>
  <line x1="1046.6666666666665" x2="1085" y1="427" y2="427" class="net_139,140,141,142,143,144,145,146,147,148,149,150,151,152"/>
  <line x1="1105" x2="1140" y1="417" y2="417" class="net_153,154,155,156,157,158,159,160,161,162,163,164,165,166"/>
  <line x1="1225" x2="1235" y1="800" y2="800" class="net_34"/>
  <line x1="1235" x2="1235" y1="800" y2="840" class="net_34"/>
  <line x1="1235" x2="1115" y1="840" y2="840" class="net_34"/>
  <line x1="1115" x2="1115" y1="840" y2="740" class="net_34"/>
  <circle cx="1235" cy="800" r="2" style="fill:#000" class="net_34"/>
  <line x1="1115" x2="1140" y1="740" y2="740" class="net_34"/>
  <line x1="1225" x2="1260" y1="800" y2="800" class="net_34"/>
  <line x1="1105" x2="1140" y1="760" y2="760" class="net_124"/>
  <line x1="40" x2="80" y1="366" y2="366" class="net_12,13,14,15,16,17,18,19"/>
  <line x1="80" x2="80" y1="366" y2="437.5" class="net_12,13,14,15,16,17,18,19"/>
  <circle cx="80" cy="366" r="2" style="fill:#000" class="net_12,13,14,15,16,17,18,19"/>
  <line x1="80" x2="99.66666666666667" y1="437.5" y2="437.5" class="net_12,13,14,15,16,17,18,19"/>
  <line x1="40" x2="275.3333333333333" y1="366" y2="366" class="net_12,13,14,15,16,17,18,19"/>
  <line x1="40" x2="99.66666666666667" y1="452.5" y2="452.5" class="net_4,5,6,7,8,9,10,11"/>
  <line x1="40" x2="70" y1="452.5" y2="452.5" class="net_4,5,6,7,8,9,10,11"/>
  <line x1="70" x2="70" y1="452.5" y2="381" class="net_4,5,6,7,8,9,10,11"/>
  <circle cx="70" cy="452.5" r="2" style="fill:#000" class="net_4,5,6,7,8,9,10,11"/>
  <line x1="70" x2="275.3333333333333" y1="381" y2="381" class="net_4,5,6,7,8,9,10,11"/>
  <line x1="588" x2="915" y1="376" y2="376" class="net_94,95,96,97,98,99,100,101,102,103,104,105,106,107"/>
  <line x1="915" x2="915" y1="376" y2="447" class="net_94,95,96,97,98,99,100,101,102,103,104,105,106,107"/>
  <line x1="915" x2="943.3333333333334" y1="447" y2="447" class="net_94,95,96,97,98,99,100,101,102,103,104,105,106,107"/>
  <line x1="687.3333333333334" x2="953.3333333333334" y1="500" y2="500" class="net_63"/>
  <line x1="953.3333333333334" x2="953.3333333333334" y1="500" y2="452" class="net_63"/>
  <line x1="22" x2="22" y1="12" y2="22" class="net_NaN"/>
  <line x1="22" x2="54.5" y1="22" y2="22" class="net_NaN"/>
  <circle cx="22" cy="22" r="2" style="fill:#000" class="net_NaN"/>
  <line x1="54.5" x2="54.5" y1="22" y2="44" class="net_NaN"/>
  <line x1="22" x2="54.5" y1="12" y2="64" class="net_NaN"/>
  <line x1="22" x2="22" y1="12" y2="84.5" class="net_NaN"/>
  <circle cx="22" cy="84.5" r="2" style="fill:#000" class="net_NaN"/>
  <line x1="22" x2="54" y1="84.5" y2="84.5" class="net_NaN"/>
  <line x1="22" x2="22" y1="12" y2="104.5" class="net_NaN"/>
  <circle cx="22" cy="104.5" r="2" style="fill:#000" class="net_NaN"/>
  <line x1="22" x2="54" y1="104.5" y2="104.5" class="net_NaN"/>
  <line x1="22" x2="22" y1="12" y2="124.5" class="net_NaN"/>
  <circle cx="22" cy="124.5" r="2" style="fill:#000" class="net_NaN"/>
  <line x1="22" x2="54" y1="124.5" y2="124.5" class="net_NaN"/>
  <line x1="22" x2="22" y1="12" y2="144.5" class="net_NaN"/>
  <circle cx="22" cy="144.5" r="2" style="fill:#000" class="net_NaN"/>
  <line x1="22" x2="54" y1="144.5" y2="144.5" class="net_NaN"/>
  <line x1="22" x2="22" y1="12" y2="164.5" class="net_NaN"/>
  <circle cx="22" cy="164.5" r="2" style="fill:#000" class="net_NaN"/>
  <line x1="22" x2="54" y1="164.5" y2="164.5" class="net_NaN"/>
  <line x1="22" x2="22" y1="12" y2="184.5" class="net_NaN"/>
  <circle cx="22" cy="184.5" r="2" style="fill:#000" class="net_NaN"/>
  <line x1="22" x2="54" y1="184.5" y2="184.5" class="net_NaN"/>
  <line x1="22" x2="22" y1="12" y2="204.5" class="net_NaN"/>
  <circle cx="22" cy="204.5" r="2" style="fill:#000" class="net_NaN"/>
  <line x1="22" x2="54" y1="204.5" y2="204.5" class="net_NaN"/>
  <line x1="22" x2="22" y1="12" y2="224.5" class="net_NaN"/>
  <circle cx="22" cy="224.5" r="2" style="fill:#000" class="net_NaN"/>
  <line x1="22" x2="54" y1="224.5" y2="224.5" class="net_NaN"/>
  <line x1="22" x2="22" y1="12" y2="244.5" class="net_NaN"/>
  <circle cx="22" cy="244.5" r="2" style="fill:#000" class="net_NaN"/>
  <line x1="22" x2="54" y1="244.5" y2="244.5" class="net_NaN"/>
  <line x1="22" x2="22" y1="12" y2="264.5" class="net_NaN"/>
  <circle cx="22" cy="264.5" r="2" style="fill:#000" class="net_NaN"/>
  <line x1="22" x2="54" y1="264.5" y2="264.5" class="net_NaN"/>
  <line x1="22" x2="22" y1="12" y2="334" class="net_NaN"/>
  <line x1="22" x2="54.5" y1="334" y2="334" class="net_NaN"/>
  <line x1="54.5" x2="54.5" y1="334" y2="285" class="net_NaN"/>
  <line x1="22" x2="22" y1="12" y2="324" class="net_NaN"/>
  <line x1="22" x2="54.5" y1="324" y2="324" class="net_NaN"/>
  <circle cx="22" cy="324" r="2" style="fill:#000" class="net_NaN"/>
  <line x1="54.5" x2="54.5" y1="324" y2="305" class="net_NaN"/>
</svg>
